<mxfile host="app.diagrams.net" modified="2023-08-21T04:01:42.327Z" agent="Mozilla/5.0 (Macintosh; Intel Mac OS X 10_15_7) AppleWebKit/537.36 (KHTML, like Gecko) Chrome/115.0.0.0 Safari/537.36 Edg/115.0.1901.203" etag="fLW7TvNQJK7lmAmNROeH" version="21.6.8" type="device">
  <diagram name="第 1 页" id="blxSyfBKqjCWabXQWPOi">
    <mxGraphModel dx="1064" dy="609" grid="1" gridSize="10" guides="1" tooltips="1" connect="1" arrows="1" fold="1" page="1" pageScale="1" pageWidth="827" pageHeight="1169" math="0" shadow="0">
      <root>
        <mxCell id="0" />
        <mxCell id="1" parent="0" />
        <mxCell id="dUrIm4O4jotg1TRx-QQ4-1" value="" style="rounded=0;whiteSpace=wrap;html=1;" parent="1" vertex="1">
          <mxGeometry x="50" y="360" width="160" height="91" as="geometry" />
        </mxCell>
        <mxCell id="dUrIm4O4jotg1TRx-QQ4-2" value="_driver_queue" style="rounded=0;whiteSpace=wrap;html=1;movable=1;resizable=1;rotatable=1;deletable=1;editable=1;locked=0;connectable=1;" parent="1" vertex="1">
          <mxGeometry x="60" y="365" width="140" height="20" as="geometry" />
        </mxCell>
        <mxCell id="dUrIm4O4jotg1TRx-QQ4-3" value="_thread_pool" style="rounded=0;whiteSpace=wrap;html=1;movable=1;resizable=1;rotatable=1;deletable=1;editable=1;locked=0;connectable=1;" parent="1" vertex="1">
          <mxGeometry x="60" y="385" width="140" height="20" as="geometry" />
        </mxCell>
        <mxCell id="dUrIm4O4jotg1TRx-QQ4-4" value="_blocked_driver_poller" style="rounded=0;whiteSpace=wrap;html=1;movable=1;resizable=1;rotatable=1;deletable=1;editable=1;locked=0;connectable=1;" parent="1" vertex="1">
          <mxGeometry x="60" y="405" width="140" height="20" as="geometry" />
        </mxCell>
        <mxCell id="dUrIm4O4jotg1TRx-QQ4-5" value="_exec_state_reporter" style="rounded=0;whiteSpace=wrap;html=1;movable=1;resizable=1;rotatable=1;deletable=1;editable=1;locked=0;connectable=1;" parent="1" vertex="1">
          <mxGeometry x="60" y="425" width="140" height="20" as="geometry" />
        </mxCell>
        <mxCell id="dUrIm4O4jotg1TRx-QQ4-6" value="GlobalDriverExecutor" style="text;html=1;strokeColor=none;fillColor=none;align=center;verticalAlign=middle;whiteSpace=wrap;rounded=0;" parent="1" vertex="1">
          <mxGeometry x="70" y="450" width="120" height="20" as="geometry" />
        </mxCell>
        <mxCell id="dUrIm4O4jotg1TRx-QQ4-7" value="" style="rounded=0;whiteSpace=wrap;html=1;" parent="1" vertex="1">
          <mxGeometry x="300" y="525" width="160" height="60" as="geometry" />
        </mxCell>
        <mxCell id="dUrIm4O4jotg1TRx-QQ4-10" value="_polling_thread" style="rounded=0;whiteSpace=wrap;html=1;" parent="1" vertex="1">
          <mxGeometry x="310" y="536" width="140" height="20" as="geometry" />
        </mxCell>
        <mxCell id="dUrIm4O4jotg1TRx-QQ4-11" value="_blocked_drivers" style="rounded=0;whiteSpace=wrap;html=1;" parent="1" vertex="1">
          <mxGeometry x="310" y="556" width="140" height="20" as="geometry" />
        </mxCell>
        <mxCell id="dUrIm4O4jotg1TRx-QQ4-12" value="PipelineDriverPoller" style="text;html=1;strokeColor=none;fillColor=none;align=center;verticalAlign=middle;whiteSpace=wrap;rounded=0;" parent="1" vertex="1">
          <mxGeometry x="320" y="590" width="120" height="20" as="geometry" />
        </mxCell>
        <mxCell id="dUrIm4O4jotg1TRx-QQ4-14" value="" style="curved=1;endArrow=classic;html=1;rounded=0;exitX=1;exitY=0.5;exitDx=0;exitDy=0;entryX=0.004;entryY=0.44;entryDx=0;entryDy=0;dashed=1;dashPattern=1 1;entryPerimeter=0;" parent="1" source="dUrIm4O4jotg1TRx-QQ4-4" target="dUrIm4O4jotg1TRx-QQ4-7" edge="1">
          <mxGeometry width="50" height="50" relative="1" as="geometry">
            <mxPoint x="241" y="460" as="sourcePoint" />
            <mxPoint x="250" y="530" as="targetPoint" />
            <Array as="points">
              <mxPoint x="230" y="415" />
              <mxPoint x="240" y="420" />
              <mxPoint x="240" y="450" />
              <mxPoint x="240" y="480" />
              <mxPoint x="240" y="510" />
              <mxPoint x="240" y="520" />
              <mxPoint x="240" y="530" />
              <mxPoint x="240" y="550" />
              <mxPoint x="280" y="550" />
            </Array>
          </mxGeometry>
        </mxCell>
        <mxCell id="dUrIm4O4jotg1TRx-QQ4-18" value="" style="curved=1;endArrow=classic;html=1;rounded=0;exitX=1;exitY=0.75;exitDx=0;exitDy=0;entryX=-0.002;entryY=0.445;entryDx=0;entryDy=0;dashed=1;dashPattern=1 1;entryPerimeter=0;" parent="1" edge="1">
          <mxGeometry width="50" height="50" relative="1" as="geometry">
            <mxPoint x="200" y="396" as="sourcePoint" />
            <mxPoint x="259.4799999999999" y="395.28999999999996" as="targetPoint" />
            <Array as="points">
              <mxPoint x="230" y="396" />
              <mxPoint x="250" y="396" />
            </Array>
          </mxGeometry>
        </mxCell>
        <mxCell id="dUrIm4O4jotg1TRx-QQ4-19" value="DriverQueue（Morsel + Pipeline）" style="rounded=1;whiteSpace=wrap;html=1;fillColor=#d5e8d4;strokeColor=#82b366;" parent="1" vertex="1">
          <mxGeometry x="280" y="204" width="200" height="30" as="geometry" />
        </mxCell>
        <mxCell id="dUrIm4O4jotg1TRx-QQ4-21" value="" style="curved=1;endArrow=classic;html=1;rounded=0;exitX=0.999;exitY=0.61;exitDx=0;exitDy=0;dashed=1;dashPattern=1 1;exitPerimeter=0;" parent="1" source="dUrIm4O4jotg1TRx-QQ4-2" edge="1">
          <mxGeometry width="50" height="50" relative="1" as="geometry">
            <mxPoint x="220" y="410" as="sourcePoint" />
            <mxPoint x="280" y="220" as="targetPoint" />
            <Array as="points">
              <mxPoint x="240" y="380" />
              <mxPoint x="240" y="340" />
              <mxPoint x="240" y="300" />
              <mxPoint x="240" y="260" />
              <mxPoint x="240" y="220" />
            </Array>
          </mxGeometry>
        </mxCell>
        <mxCell id="dUrIm4O4jotg1TRx-QQ4-22" value="" style="endArrow=classicThin;html=1;rounded=0;entryX=0.46;entryY=-0.003;entryDx=0;entryDy=0;exitX=0.5;exitY=1;exitDx=0;exitDy=0;entryPerimeter=0;endFill=1;strokeWidth=2;" parent="1" source="dUrIm4O4jotg1TRx-QQ4-19" target="NBbG4X1aazX111wQvRTo-11" edge="1">
          <mxGeometry width="50" height="50" relative="1" as="geometry">
            <mxPoint x="330" y="310" as="sourcePoint" />
            <mxPoint x="380" y="330" as="targetPoint" />
          </mxGeometry>
        </mxCell>
        <mxCell id="dUrIm4O4jotg1TRx-QQ4-24" value="&lt;i&gt;DriverQueue::take&lt;/i&gt;" style="text;html=1;strokeColor=none;fillColor=none;align=center;verticalAlign=middle;whiteSpace=wrap;rounded=0;" parent="1" vertex="1">
          <mxGeometry x="270" y="280" width="110" height="20" as="geometry" />
        </mxCell>
        <mxCell id="dUrIm4O4jotg1TRx-QQ4-25" value="轮询线程&lt;br&gt;PipelineDriverPoller::run_internal" style="rounded=1;whiteSpace=wrap;html=1;fillColor=#e6c8c7;strokeColor=#b85450;" parent="1" vertex="1">
          <mxGeometry x="570" y="490" width="200" height="30" as="geometry" />
        </mxCell>
        <mxCell id="dUrIm4O4jotg1TRx-QQ4-26" value="阻塞队列" style="rounded=1;whiteSpace=wrap;html=1;fillColor=#0050ef;strokeColor=#001DBC;fontColor=#ffffff;" parent="1" vertex="1">
          <mxGeometry x="570" y="600" width="200" height="30" as="geometry" />
        </mxCell>
        <mxCell id="dUrIm4O4jotg1TRx-QQ4-27" value="" style="endArrow=classic;html=1;rounded=1;dashed=1;dashPattern=1 1;entryX=0;entryY=0.5;entryDx=0;entryDy=0;" parent="1" source="dUrIm4O4jotg1TRx-QQ4-10" target="dUrIm4O4jotg1TRx-QQ4-25" edge="1">
          <mxGeometry width="50" height="50" relative="1" as="geometry">
            <mxPoint x="520" y="556" as="sourcePoint" />
            <mxPoint x="570" y="506" as="targetPoint" />
            <Array as="points">
              <mxPoint x="540" y="546" />
              <mxPoint x="540" y="540" />
              <mxPoint x="540" y="510" />
              <mxPoint x="550" y="506" />
            </Array>
          </mxGeometry>
        </mxCell>
        <mxCell id="dUrIm4O4jotg1TRx-QQ4-29" value="" style="curved=1;endArrow=classic;html=1;rounded=0;entryX=0.006;entryY=0.639;entryDx=0;entryDy=0;exitX=1;exitY=0.5;exitDx=0;exitDy=0;dashed=1;dashPattern=1 1;entryPerimeter=0;" parent="1" source="dUrIm4O4jotg1TRx-QQ4-11" target="dUrIm4O4jotg1TRx-QQ4-26" edge="1">
          <mxGeometry width="50" height="50" relative="1" as="geometry">
            <mxPoint x="480" y="626" as="sourcePoint" />
            <mxPoint x="530" y="576" as="targetPoint" />
            <Array as="points">
              <mxPoint x="460" y="566" />
              <mxPoint x="470" y="566" />
              <mxPoint x="480" y="566" />
              <mxPoint x="540" y="566" />
              <mxPoint x="540" y="570" />
              <mxPoint x="540" y="590" />
              <mxPoint x="540" y="610" />
              <mxPoint x="540" y="620" />
              <mxPoint x="550" y="620" />
            </Array>
          </mxGeometry>
        </mxCell>
        <mxCell id="dUrIm4O4jotg1TRx-QQ4-30" value="" style="endArrow=none;html=1;rounded=0;exitX=1.003;exitY=0.431;exitDx=0;exitDy=0;dashed=1;exitPerimeter=0;strokeColor=#007FFF;endFill=0;strokeWidth=2;" parent="1" edge="1">
          <mxGeometry width="50" height="50" relative="1" as="geometry">
            <mxPoint x="520.78" y="389.40999999999997" as="sourcePoint" />
            <mxPoint x="551" y="220" as="targetPoint" />
            <Array as="points">
              <mxPoint x="542" y="390" />
              <mxPoint x="551" y="390" />
              <mxPoint x="551" y="380" />
              <mxPoint x="551" y="350" />
              <mxPoint x="551" y="270" />
            </Array>
          </mxGeometry>
        </mxCell>
        <mxCell id="dUrIm4O4jotg1TRx-QQ4-31" value="DriverQueue ::put_back" style="text;html=1;strokeColor=none;fillColor=none;align=center;verticalAlign=middle;whiteSpace=wrap;rounded=0;fontStyle=2" parent="1" vertex="1">
          <mxGeometry x="546" y="280" width="136" height="20" as="geometry" />
        </mxCell>
        <mxCell id="dUrIm4O4jotg1TRx-QQ4-32" value="" style="endArrow=classic;html=1;rounded=0;exitX=0.549;exitY=0.015;exitDx=0;exitDy=0;exitPerimeter=0;dashed=1;strokeWidth=2;entryX=1;entryY=0.5;entryDx=0;entryDy=0;strokeColor=#007FFF;" parent="1" source="dUrIm4O4jotg1TRx-QQ4-25" target="dUrIm4O4jotg1TRx-QQ4-19" edge="1">
          <mxGeometry width="50" height="50" relative="1" as="geometry">
            <mxPoint x="670" y="445" as="sourcePoint" />
            <mxPoint x="480" y="220" as="targetPoint" />
            <Array as="points">
              <mxPoint x="680" y="350" />
              <mxPoint x="680" y="280" />
              <mxPoint x="680" y="250" />
              <mxPoint x="680" y="220" />
              <mxPoint x="590" y="220" />
            </Array>
          </mxGeometry>
        </mxCell>
        <mxCell id="dUrIm4O4jotg1TRx-QQ4-34" value="" style="endArrow=classic;html=1;rounded=0;exitX=0.531;exitY=-0.033;exitDx=0;exitDy=0;exitPerimeter=0;entryX=0.529;entryY=1.033;entryDx=0;entryDy=0;entryPerimeter=0;strokeWidth=2;" parent="1" edge="1">
          <mxGeometry width="50" height="50" relative="1" as="geometry">
            <mxPoint x="678.2" y="599.0100000000002" as="sourcePoint" />
            <mxPoint x="677.8" y="520.99" as="targetPoint" />
          </mxGeometry>
        </mxCell>
        <mxCell id="dUrIm4O4jotg1TRx-QQ4-35" value="move ready queue" style="text;html=1;strokeColor=none;fillColor=none;align=center;verticalAlign=middle;whiteSpace=wrap;rounded=0;fontStyle=2" parent="1" vertex="1">
          <mxGeometry x="680" y="551" width="113" height="20" as="geometry" />
        </mxCell>
        <mxCell id="dUrIm4O4jotg1TRx-QQ4-36" value="" style="endArrow=classic;html=1;rounded=0;exitX=0.461;exitY=1.004;exitDx=0;exitDy=0;exitPerimeter=0;entryX=0.004;entryY=0.323;entryDx=0;entryDy=0;entryPerimeter=0;fontStyle=1;fillColor=#0050ef;strokeColor=#001DBC;strokeWidth=2;" parent="1" source="NBbG4X1aazX111wQvRTo-11" target="dUrIm4O4jotg1TRx-QQ4-26" edge="1">
          <mxGeometry width="50" height="50" relative="1" as="geometry">
            <mxPoint x="519.48" y="400.52" as="sourcePoint" />
            <mxPoint x="570" y="610" as="targetPoint" />
            <Array as="points">
              <mxPoint x="380" y="480" />
              <mxPoint x="380" y="490" />
              <mxPoint x="510" y="490" />
              <mxPoint x="550" y="490" />
              <mxPoint x="550" y="550" />
              <mxPoint x="550" y="590" />
              <mxPoint x="550" y="610" />
            </Array>
          </mxGeometry>
        </mxCell>
        <mxCell id="NBbG4X1aazX111wQvRTo-3" value="work&lt;br&gt;0" style="rounded=1;whiteSpace=wrap;html=1;rotation=0;fillColor=#FF9999;" vertex="1" parent="1">
          <mxGeometry x="280" y="360" width="30" height="80" as="geometry" />
        </mxCell>
        <mxCell id="NBbG4X1aazX111wQvRTo-5" value="work&lt;br&gt;1" style="rounded=1;whiteSpace=wrap;html=1;rotation=0;fillColor=#FF9999;" vertex="1" parent="1">
          <mxGeometry x="350" y="360" width="30" height="80" as="geometry" />
        </mxCell>
        <mxCell id="NBbG4X1aazX111wQvRTo-6" value="work&lt;br&gt;2" style="rounded=1;whiteSpace=wrap;html=1;rotation=0;fillColor=#FF9999;" vertex="1" parent="1">
          <mxGeometry x="410" y="360" width="30" height="80" as="geometry" />
        </mxCell>
        <mxCell id="NBbG4X1aazX111wQvRTo-7" value="work&lt;br&gt;n" style="rounded=1;whiteSpace=wrap;html=1;rotation=0;fillColor=#FF9999;" vertex="1" parent="1">
          <mxGeometry x="470" y="360" width="30" height="80" as="geometry" />
        </mxCell>
        <mxCell id="NBbG4X1aazX111wQvRTo-11" value="" style="rounded=1;whiteSpace=wrap;html=1;fillColor=none;dashed=1;" vertex="1" parent="1">
          <mxGeometry x="260" y="340" width="260" height="122" as="geometry" />
        </mxCell>
      </root>
    </mxGraphModel>
  </diagram>
</mxfile>
